<?xml version="1.0" encoding="UTF-8"?>
<svg xmlns="http://www.w3.org/2000/svg" id="k" width="86.24mm" height="89.01mm" viewBox="0 0 244.46 252.3">
  <path d="M69.26 60.38a3.4 3.4 0 0 1 4.06-2.57l34.04 7.67a51.82 51.82 0 0 1 5.65-1.41L91.25 36.42a3.391 3.391 0 0 1 .57-4.77 3.391 3.391 0 0 1 4.77.57l23.78 30.21-2.29-58.91a3.404 3.404 0 0 1 3.26-3.53c1.86-.08 3.45 1.39 3.53 3.26l2.34 60.08c1.67.14 3.32.34 4.96.63l48.71-29.34c1.61-.97 3.7-.45 4.66 1.16.97 1.61.45 3.7-1.16 4.66l-43.13 25.97c5.1 1.92 9.7 4.69 13.37 8.31l21.65 3.87a3.4 3.4 0 0 1 2.75 3.94 3.393 3.393 0 0 1-3.34 2.8c-.2 0-.4-.02-.6-.05l-14.7-2.62c1.5 3.04 2.51 6.45 2.89 10.21 0 3.76-1.25 4.54-4.85 4.54H143.4c-3.29 0-3.44-2.97-4.69-4.85-1.63-2.56-3.53-4.42-6.05-5.66l12.07 34.89a3.401 3.401 0 0 1-3.21 4.51c-1.41 0-2.73-.88-3.21-2.29l-13.45-38.9c-.26-.02-.53-.03-.8-.04l-6.01 20.24a3.395 3.395 0 0 1-3.26 2.43 3.39 3.39 0 0 1-3.26-4.36l5.23-17.62c-7.05 1.82-11.53 7.08-11.53 14.93v32.55c0 10.01 7.04 15.64 17.37 15.64 8.45 0 15.18-3.13 16.43-10.64.47-3.13.78-5.63 4.23-5.63h15.33c3.44 0 4.69 1.57 4.69 5.32 0 20.18-21.28 32.86-40.68 32.86s-41.93-10.8-41.93-35.36V98.5c0-13.42 6.96-22.72 16.3-28.4l-25.15-5.67a3.4 3.4 0 0 1-2.57-4.06ZM45.61 228.92h-2.23c-.39 0-.69.2-.9.56l-7.4 13.54-7.4-13.54c-.21-.36-.51-.56-.9-.56h-2.41c-.48 0-.78.26-.78.82l-.45 21.35c0 .56.24.82.72.82h4.12c.48 0 .75-.26.75-.82l.03-9.74 4.15 8.17c.21.39.51.56.9.56h2.29c.39 0 .72-.2.9-.59l4.21-8.31.06 9.91c0 .56.27.82.75.82h4.12c.48 0 .72-.26.72-.82l-.48-21.35c0-.56-.3-.82-.78-.82Zm20.76 17.59h-8.91v-3.56h7.67c.48 0 .75-.29.75-.82v-3.7c0-.52-.27-.82-.75-.82h-7.67v-3.27h8.85c.48 0 .75-.29.75-.82v-3.79c0-.52-.27-.82-.75-.82H52.53c-.48 0-.75.29-.75.82v21.35c0 .52.27.82.75.82h13.84c.48 0 .75-.29.75-.82v-3.76c0-.52-.27-.82-.75-.82Zm-4.09-26.06-6.8 3.21c-.42.2-.6.56-.45 1.05l.63 2.06c.15.49.48.69.93.56l7.19-1.9c.48-.13.66-.52.51-1.01l-1.05-3.5c-.15-.52-.51-.69-.96-.46Zm26.09 8.47H70.5c-.48 0-.75.29-.75.82v3.86c0 .52.27.82.75.82h6.02v16.68c0 .52.27.82.75.82h4.24c.48 0 .75-.29.75-.82v-16.68h6.11c.48 0 .75-.29.75-.82v-3.86c0-.52-.27-.82-.75-.82Zm21.45 22.01c.36.56.12.98-.48.98h-4.84c-.39 0-.72-.16-.93-.52l-3.16-5.36h-2.44v5.07c0 .52-.27.82-.75.82H93.1c-.48 0-.75-.29-.75-.82v-21.35c0-.52.27-.82.75-.82h8.12c5.45 0 8.67 3.73 8.67 8.7 0 3.21-1.5 5.76-4 7.16l3.94 6.15Zm-5.69-13.37c0-1.93-1.23-3.43-3.46-3.43h-2.71v6.7h2.8c2.08 0 3.37-1.44 3.37-3.27Zm31.56 2.78c0 6.87-4.78 11.97-11.28 11.97s-11.4-5.23-11.4-11.97 4.84-11.94 11.4-11.94 11.28 5 11.28 11.94Zm-5.87 0c0-3.7-2.29-6.28-5.42-6.28s-5.54 2.62-5.54 6.28 2.35 6.31 5.54 6.31 5.42-2.68 5.42-6.31Zm27.11-2.65c0 4.84-3.46 8.27-9.18 8.31l-2.38.03v5.07c0 .52-.27.82-.75.82h-4.12c-.48 0-.75-.29-.75-.82v-21.35c0-.52.27-.82.75-.82h7.52c5.54 0 8.91 3.63 8.91 8.76Zm-5.75-.13c0-1.7-1.05-3.33-3.55-3.33h-2.26v6.44h2.26c2.56 0 3.55-1.54 3.55-3.11Zm30.9 2.78c0 6.87-4.78 11.97-11.28 11.97s-11.4-5.23-11.4-11.97 4.84-11.94 11.4-11.94 11.28 5 11.28 11.94Zm-5.87 0c0-3.7-2.29-6.28-5.42-6.28s-5.54 2.62-5.54 6.28 2.35 6.31 5.54 6.31 5.42-2.68 5.42-6.31Zm24.31 6.11h-8.64v-16.71c0-.52-.27-.82-.75-.82h-4.27c-.48 0-.75.29-.75.82v21.35c0 .52.27.82.75.82h13.66c.48 0 .75-.29.75-.82v-3.83c0-.52-.27-.82-.75-.82Zm18.5.07h-8.91v-3.56h7.67c.48 0 .75-.29.75-.82v-3.7c0-.52-.27-.82-.75-.82h-7.67v-3.27h8.85c.48 0 .75-.29.75-.82v-3.79c0-.52-.27-.82-.75-.82h-13.78c-.48 0-.75.29-.75.82v21.35c0 .52.27.82.75.82h13.84c.48 0 .75-.29.75-.82v-3.76c0-.52-.27-.82-.75-.82ZM16.34 205.49c-.24-.46-.6-.52-1.02-.26-.72.49-1.93 1.08-3.49 1.08-3.61 0-5.96-2.29-5.96-6.15s2.32-6.05 5.93-6.05c1.56 0 2.8.56 3.49 1.01.45.26.78.16 1.02-.29l1.75-3.47c.21-.46.15-.85-.24-1.11-1.11-.72-3.31-1.86-6.74-1.86-6.65 0-11.07 5.3-11.07 11.8s4.45 11.77 11.07 11.77c4.06 0 6.29-1.57 6.71-1.86.48-.36.51-.69.3-1.14l-1.75-3.47Zm11.28 5.36v-7.82h8.61v7.82c0 .52.27.82.75.82h4.24c.48 0 .75-.29.75-.82V189.5c0-.52-.27-.82-.75-.82h-4.24c-.48 0-.75.29-.75.82v8.01h-8.61v-8.01c0-.52-.27-.82-.75-.82h-4.24c-.48 0-.75.29-.75.82v21.35c0 .52.27.82.75.82h4.24c.48 0 .75-.29.75-.82Zm24.31-3.04-1.2 3.24c-.15.42-.45.62-.87.62h-4.3c-.57 0-.81-.36-.57-.95l8.88-21.42c.18-.43.45-.62.87-.62h2.2c.42 0 .69.2.87.62l8.76 21.42c.24.59 0 .95-.57.95h-4.36c-.42 0-.72-.2-.87-.62l-1.2-3.24h-7.61Zm1.38-4.71h4.84l-2.41-6.25-2.44 6.25Zm-2.56-16.19h2.95c.39 0 .69-.13.93-.46l1.17-1.47 1.17 1.47c.24.33.54.46.93.46h2.95c.63 0 .81-.42.45-.98l-3.07-4.51c-.24-.33-.51-.49-.9-.49h-2.95c-.39 0-.69.16-.93.49l-3.16 4.48c-.39.52-.18 1.01.45 1.01Zm15.38 7.26h6.02v16.68c0 .52.27.82.75.82h4.24c.48 0 .75-.29.75-.82v-16.68H84c.48 0 .75-.29.75-.82v-3.86c0-.52-.27-.82-.75-.82H66.13c-.48 0-.75.29-.75.82v3.86c0 .52.27.82.75.82Zm36.35-.07c.48 0 .75-.29.75-.82v-3.79c0-.52-.27-.82-.75-.82H88.7c-.48 0-.75.29-.75.82v21.35c0 .52.27.82.75.82h13.84c.48 0 .75-.29.75-.82v-3.76c0-.52-.27-.82-.75-.82h-8.91v-3.56h7.67c.48 0 .75-.29.75-.82v-3.7c0-.52-.27-.82-.75-.82h-7.67v-3.27h8.85Zm17.75 13.7h-7.61l-1.2 3.24c-.15.42-.45.62-.87.62h-4.3c-.57 0-.81-.36-.57-.95l8.88-21.42c.18-.43.45-.62.87-.62h2.2c.42 0 .69.2.87.62l8.76 21.42c.24.59 0 .95-.57.95h-4.36c-.42 0-.72-.2-.87-.62l-1.2-3.24Zm-1.38-4.71-2.41-6.25-2.44 6.25h4.84Zm29.97-1.73v-11.87c0-.52-.27-.82-.75-.82h-4.24c-.48 0-.75.29-.75.82v12.36c0 2.12-1.05 4.54-4.06 4.54s-3.97-2.42-3.97-4.54v-12.36c0-.52-.27-.82-.75-.82h-4.24c-.48 0-.75.29-.75.82v11.87c0 7 3.91 10.59 9.72 10.59s9.81-3.6 9.81-10.59Zm12.94 4.42h-2.44v5.07c0 .52-.27.82-.75.82h-4.12c-.48 0-.75-.29-.75-.82V189.5c0-.52.27-.82.75-.82h8.12c5.45 0 8.67 3.73 8.67 8.7 0 3.21-1.5 5.76-4 7.16l3.94 6.15c.36.56.12.98-.48.98h-4.84c-.39 0-.72-.16-.93-.52l-3.16-5.36Zm-2.44-5.2h2.8c2.08 0 3.37-1.44 3.37-3.27 0-1.93-1.23-3.43-3.46-3.43h-2.71v6.7Zm26.45 11.48c-6.56 0-11.4-5.23-11.4-11.97s4.84-11.94 11.4-11.94 11.28 5 11.28 11.94-4.79 11.97-11.28 11.97Zm5.42-11.97c0-3.7-2.29-6.28-5.42-6.28s-5.54 2.62-5.54 6.28 2.35 6.31 5.54 6.31 5.42-2.68 5.42-6.31Zm28.43-11.41h-4.24c-.48 0-.75.29-.75.82v12.36c0 2.12-1.05 4.54-4.06 4.54s-3.97-2.42-3.97-4.54V189.5c0-.52-.27-.82-.75-.82h-4.24c-.48 0-.75.29-.75.82v11.87c0 7 3.91 10.59 9.72 10.59s9.81-3.6 9.81-10.59V189.5c0-.52-.27-.82-.75-.82Zm24.67 22.01-6.95-10.79 6.47-10.24c.33-.56.12-.98-.48-.98h-4.84c-.39 0-.69.2-.9.56l-3.7 6.44-3.4-6.44c-.21-.39-.51-.56-.9-.56h-5.17c-.6 0-.81.43-.48.98l6.47 10.5-6.77 10.53c-.36.56-.12.98.48.98h4.84c.39 0 .69-.2.9-.56l3.97-6.83 4.03 6.87c.21.36.51.52.9.52h5.06c.6 0 .84-.42.48-.98Z" fill="#fff"></path>
</svg>
